<?xml version="1.0" standalone="no"?>
<!DOCTYPE svg PUBLIC "-//W3C//DTD SVG 1.1//EN" "http://www.w3.org/Graphics/SVG/1.1/DTD/svg11.dtd" >
<svg xmlns="http://www.w3.org/2000/svg" xmlns:xlink="http://www.w3.org/1999/xlink" version="1.1">
<metadata></metadata>
<defs>
<font id="wicked_mouseregular" horiz-adv-x="55" >
<font-face units-per-em="2048" ascent="1638" descent="-410" />
<missing-glyph horiz-adv-x="490" />
<glyph horiz-adv-x="682" />
<glyph horiz-adv-x="0" />
<glyph horiz-adv-x="0" />
<glyph unicode=" "  horiz-adv-x="490" />
<glyph unicode="&#x09;" horiz-adv-x="490" />
<glyph unicode="&#xa0;" horiz-adv-x="490" />
<glyph unicode="!" horiz-adv-x="722" />
<glyph unicode="&#x22;" horiz-adv-x="917" />
<glyph unicode="#" horiz-adv-x="1384" />
<glyph unicode="$" horiz-adv-x="1206" />
<glyph unicode="%" horiz-adv-x="1766" />
<glyph unicode="&#x26;" horiz-adv-x="1664" />
<glyph unicode="'" horiz-adv-x="461" />
<glyph unicode="(" horiz-adv-x="1041" />
<glyph unicode=")" horiz-adv-x="950" />
<glyph unicode="*" horiz-adv-x="734" />
<glyph unicode="+" horiz-adv-x="905" />
<glyph unicode="," horiz-adv-x="527" d="M1 156q6 104 83 178q78 74 178 73q93 -1 159 -66q66 -66 70 -159q13 -216 -104 -406l-6 -10l-6 -10q-7 -14 -12 -21q-12 -18 -43 -55q-20 -21 -40 -21q-21 0 -29 20q-5 11 9 34l5 9l5 9q7 11 8 13q7 16 12 32q5 18 7 35q4 40 -21 62q-15 15 -53 26l-30 7q-23 5 -28 7 q-78 22 -125 92q-45 67 -39 151z" />
<glyph unicode="-" horiz-adv-x="759" />
<glyph unicode="." horiz-adv-x="587" d="M24 165q26 104 112 162q88 60 188 42t154 -104q54 -85 30 -187q-26 -104 -112 -162q-88 -60 -188 -42t-154 104q-54 85 -30 187z" />
<glyph unicode="/" horiz-adv-x="1592" />
<glyph unicode="0" horiz-adv-x="1687" d="M20 951q19 367 266 608q118 114 263 169q152 59 314 45q162 -12 306 -93q139 -78 243 -209q220 -276 200 -644q-20 -367 -266 -607q-118 -113 -263 -170q-152 -57 -314 -45q-162 13 -306 93q-139 80 -243 210q-220 276 -200 643zM507 915q-6 -123 73 -215 q79 -91 199 -102q120 -8 207 71q88 81 96 203q6 121 -74 215q-80 93 -198 102q-119 9 -208 -72q-87 -79 -95 -202z" />
<glyph unicode="1" horiz-adv-x="982" d="M0 1680l805 109l122 -1765l-661 -14v1191l-263 -9z" />
<glyph unicode="2" horiz-adv-x="1591" d="M0 1339q70 104 197 214q249 216 516 225q73 2 165 -16q189 -38 307 -136q167 -140 168 -384q2 -309 -254 -763h437l-25 -499l-1297 43q171 176 326 390q311 432 237 644q-37 85 -105 124q-134 77 -281 -156z" />
<glyph unicode="3" horiz-adv-x="1460" d="M-13 1421q67 114 181 204q136 109 307 165q179 62 342 45q119 -12 231 -72q101 -55 154 -99q82 -68 108 -150q49 -144 -6 -265q-43 -98 -166 -208q89 -80 147 -190q85 -157 83 -320q-1 -160 -91 -303q-95 -152 -266 -227q-173 -74 -387 -58q-141 11 -287 62 q-163 55 -261 141l294 352q72 -44 158 -64q121 -28 217 -1q92 24 106 83q37 160 -114 204q-48 14 -114 16h-23h-19q-12 -1 -28 -1l-34 353q11 4 14 4l3 1l29 3l29 3q36 5 60 9q68 13 102 46q31 32 35 83q4 53 -25 85q-39 44 -122 24q-33 -8 -69 -24q-27 -12 -56 -31 q-19 -13 -174 -142z" />
<glyph unicode="4" horiz-adv-x="1602" d="M0 423l35 1298h558l-35 -842l314 3v804l570 -12l-5 -785l110 1l-35 -549l-79 4l-3 -355l-558 23v362z" />
<glyph unicode="5" horiz-adv-x="1438" d="M10 197q66 165 199 491q127 -77 253 -127q120 -45 194 -49q99 -5 130 56q17 40 -2 87q-18 40 -65 75q-59 40 -159 66q-207 51 -383 32l-24 845l1143 80v-457l-514 -35v-125q412 -44 548 -273q116 -196 28 -516q-79 -285 -413 -349q-267 -50 -621 48q-2 0 -9.5 2.5 l-13.5 4.5q-22 8 -40 14q-48 18 -110 44q-150 62 -141 86z" />
<glyph unicode="6" horiz-adv-x="1561" d="M35 401q-105 415 246 887q285 382 725 648l265 -417q-163 -97 -322 -239q209 -36 358 -183q150 -149 195 -368q55 -273 -72 -511t-380 -330q-138 -50 -296 -34q-162 17 -314 95q-155 79 -264 200q-106 120 -141 252zM555 677q-22 -91 26 -166q49 -75 140 -91 q89 -16 170 37q80 53 101 143q22 89 -26 165q-49 75 -140 91q-90 17 -170 -36q-78 -52 -101 -143z" />
<glyph unicode="7" horiz-adv-x="1479" d="M0 1752l1424 37l-454 -1829l-688 98l381 1154h-651z" />
<glyph unicode="8" horiz-adv-x="1550" d="M10 547q6 137 75 261q67 119 185 210q-128 141 -121 318q7 209 190 360q184 149 433 149t422 -149q171 -150 163 -360q-5 -152 -108 -278q134 -89 208 -222q76 -136 70 -289q-11 -267 -239 -455q-230 -188 -543 -188q-314 0 -529 188q-217 189 -206 455zM551 552 q2 -68 67 -111q65 -44 157 -38q91 5 156 54q65 51 63 117q-2 68 -67 111q-63 43 -157 38q-92 -5 -156 -54q-64 -51 -63 -117zM630 1282q5 -42 50 -64q46 -22 108 -15q64 8 103 41q41 35 37 75q-3 40 -50 64q-48 23 -108 16q-61 -7 -103 -43q-41 -34 -37 -74z" />
<glyph unicode="9" horiz-adv-x="1607" d="M56 1077q-55 273 72 511t380 330q138 50 296 34q162 -17 314 -95q156 -80 263 -200q108 -120 141 -252q106 -414 -245 -887q-285 -382 -725 -648l-265 417q162 97 322 239q-209 36 -358 183q-150 149 -195 368zM565 1206q-21 -90 27 -165q49 -75 139 -91q91 -16 171 36 q78 52 101 143q22 91 -26 166q-49 75 -140 91q-89 16 -170 -37q-80 -53 -102 -143z" />
<glyph unicode=":" horiz-adv-x="587" />
<glyph unicode=";" horiz-adv-x="587" />
<glyph unicode="&#x3c;" horiz-adv-x="1106" />
<glyph unicode="=" horiz-adv-x="1001" />
<glyph unicode="&#x3e;" horiz-adv-x="1106" />
<glyph unicode="?" horiz-adv-x="1350" />
<glyph unicode="@" horiz-adv-x="2490" />
<glyph unicode="A" horiz-adv-x="1909" d="M0 164l935 1656l919 -1676l-583 -214l-110 268l-574 -32l-134 -276zM776 553l233 17l-102 252z" />
<glyph unicode="B" horiz-adv-x="1596" d="M0 1672l546 16q189 0 353 -23q204 -29 321 -89q167 -85 167 -223q0 -120 -126 -280q-27 -35 -73 -75q267 -92 311 -359q9 -56 9 -108q0 -183 -115 -312q-137 -155 -386 -178q-100 -9 -262 -11h-131l-131 1l-1 1h-398zM576 1328l18 -293q89 3 147 49q55 44 59 101v8 q0 54 -49 91q-60 44 -170 44h-5zM614 664l19 -306q0 -5 55 -8q6 0 19 -1t20 -1h23q48 1 86 21l14 8q37 22 59 52q19 28 19 59q0 8 -1 15q-16 85 -127 127q-42 17 -97 24q-36 7 -89 10z" />
<glyph unicode="C" horiz-adv-x="1671" d="M32 1053q31 171 131 318q100 143 242 235q230 150 497 150q90 0 184 -17q319 -59 530 -294l-255 -332q-90 83 -213 105q-44 8 -85 8q-115 0 -213 -61q-135 -83 -162 -229q-6 -32 -6 -63q0 -111 75 -209q98 -126 260 -156q42 -8 83 -8q99 0 190 47l169 -374 q-146 -97 -321 -133q-97 -20 -194 -20q-86 0 -172 16q-185 35 -337 131q-148 94 -251 235q-102 139 -143 306q-23 96 -23 193q0 76 14 152z" />
<glyph unicode="D" horiz-adv-x="1657" d="M0 1662q312 97 688 97h23q562 0 775 -434q37 -73 61 -160q20 -68 30 -139q10 -67 10 -118v-17q1 -23 1 -46q0 -352 -220 -557q-188 -172 -525 -231q-161 -27 -343 -27q-93 0 -191 7q-153 11 -243 29zM571 607q57 -14 116 -14q48 0 98 9q94 18 155 74q76 71 89 196 q3 23 3 45q0 54 -18 108q-23 68 -70 108q-60 51 -155 55q-21 1 -42 1q-89 0 -167 -24z" />
<glyph unicode="E" horiz-adv-x="1282" d="M0 51l61 1682l1154 12l-12 -478l-589 24l-13 -209l356 13l-36 -442l-344 12l-15 -196l665 -13l-36 -466z" />
<glyph unicode="F" horiz-adv-x="1258" d="M0 1643l1203 25l-13 -526l-551 12l7 -213h375l-9 -421l-353 14l18 -546l-602 -38z" />
<glyph unicode="G" horiz-adv-x="1779" d="M28 682q-11 69 -11 136q0 114 31 225q48 173 163 318q242 306 646 368q85 13 168 13q115 0 227 -25q190 -44 344 -149l-193 -388q-102 53 -216 53q-38 0 -78 -6q-178 -27 -286 -156q-87 -105 -87 -227q0 -28 5 -57q26 -155 169 -245q110 -70 243 -70q38 0 78 6l1 1 l26 199l-268 3l35 379l677 -4l29 -828q-235 -242 -582 -295q-83 -13 -165 -13q-114 0 -226 25q-185 40 -341 145q-153 103 -255 253q-104 157 -134 339z" />
<glyph unicode="H" horiz-adv-x="1612" d="M0 62l34 1661h549l10 -677l341 24l15 592l608 -34l-102 -1658l-549 22l16 636l-322 -14l9 -560z" />
<glyph unicode="I" horiz-adv-x="713" d="M0 -14l108 1662l550 -23l-48 -1675z" />
<glyph unicode="J" horiz-adv-x="1046" d="M0 386q286 76 381 273q38 79 38 149q0 16 -2 32l-48 833l587 59l35 -1043q-10 -248 -151 -428q-113 -143 -300 -233q-213 -103 -427 -115z" />
<glyph unicode="K" horiz-adv-x="1676" d="M0 1688l594 -6l-2 -493l562 515l439 -341l-595 -497l623 -529l-516 -407l-503 545l-5 -457l-560 18z" />
<glyph unicode="L" horiz-adv-x="1265" d="M17 -67l37 1710l627 -8l-47 -1142l553 -17l-9 -532z" />
<glyph unicode="M" horiz-adv-x="2353" d="M13 193l479 1558l637 -708l533 696l578 -1520l-584 -243l-212 556l-296 -387l-376 446l-154 -603z" />
<glyph unicode="N" horiz-adv-x="1798" d="M0 79l131 1573l957 -687l-8 722l663 6l-98 -1743l-988 608l-25 -534z" />
<glyph unicode="O" horiz-adv-x="1897" d="M28 857q30 176 127 326q95 148 243 256q275 202 605 202q42 0 85 -3q186 -15 345 -96q152 -76 261 -205q107 -128 152 -286q27 -100 27 -203q0 -66 -11 -134q-28 -174 -128 -326q-94 -148 -241 -256q-275 -202 -605 -202q-42 0 -85 3q-187 15 -346 96q-153 76 -261 205 t-151 286q-28 99 -28 204q0 65 11 133zM572 821q-5 -29 -4 -56q0 -107 71 -192q90 -109 241 -119q18 -1 35 -1q131 0 240 80q122 90 146 231q5 29 5 56q0 106 -71 191q-92 108 -242 120q-15 1 -30 1q-133 0 -245 -80q-122 -92 -146 -231z" />
<glyph unicode="P" horiz-adv-x="1453" d="M0 1708q218 40 442 40q117 0 235 -11q296 -27 472 -135q217 -133 229 -388q1 -25 1 -50q0 -420 -323 -600q-125 -69 -269 -88q-52 -7 -94 -7q-57 0 -97 13l15 -430l-575 -42zM574 1376l13 -473q13 -1 26 -1l102 19q128 50 129 203q0 86 -42 144q-34 46 -93 75 q-67 31 -135 33z" />
<glyph unicode="Q" horiz-adv-x="1886" d="M28 912q30 173 127 325q96 146 242 255q276 202 607 202q40 0 82 -3q186 -17 345 -96q154 -77 260 -204q107 -128 152 -286q27 -99 27 -202q0 -67 -11 -135q-50 -300 -291 -517l96 -157l-442 -314l-115 232q-115 -26 -228 -26q-39 0 -77 3q-184 13 -345 94 q-154 78 -261 206q-108 129 -151 286q-28 99 -28 203q0 66 11 134zM571 875q-5 -28 -5 -54q0 -102 67 -187q84 -104 228 -124l-85 172l428 163l68 -112q20 42 27 85q5 29 5 56q0 106 -71 191q-92 107 -241 120q-15 1 -30 1q-134 0 -245 -80q-122 -92 -146 -231z" />
<glyph unicode="R" horiz-adv-x="1528" d="M0 56l62 1664q216 52 436 52q104 0 209 -12q285 -32 453 -162q210 -161 227 -470q3 -25 3 -52q0 -65 -19 -138q-24 -91 -75 -160q-66 -87 -168 -133l345 -385l-468 -350l-444 686v-556zM555 1376l4 -404q13 -1 27 -1q47 0 95 16q121 42 126 174v7q0 67 -36 115 q-31 40 -87 64q-62 27 -129 29z" />
<glyph unicode="S" horiz-adv-x="1316" d="M26 1125q-5 38 -5 75q0 145 81 270q99 150 278 215q147 54 307 53q89 0 183 -16q167 -30 433 -179l-257 -400q-62 110 -171 167q-42 22 -80 22q-58 0 -104 -53q-29 -33 -29 -73q0 -88 139 -211q70 -60 163 -126q106 -73 110 -76q43 -30 59 -45q131 -115 155 -274 q5 -34 5 -68q0 -117 -64 -231q-87 -151 -212 -223q-142 -82 -347 -82h-5q-116 2 -272 55q-125 43 -339 189l296 360q83 -160 202 -160h10h3q40 0 60 23q16 19 16 53q0 8 -1 18q-6 60 -52 115q-42 48 -158 123q-110 71 -154 104q-220 160 -250 375z" />
<glyph unicode="T" horiz-adv-x="1479" d="M0 1244v474l1424 -16v-491l-393 9l-9 -1220h-573l37 1233z" />
<glyph unicode="U" horiz-adv-x="1698" d="M153 1687l600 -43l-25 -70l-25 -69q-22 -62 -47 -142q-51 -164 -68 -289q-13 -92 -13 -169q0 -147 49 -238q29 -53 71 -82q34 -23 72 -32q24 -5 49 -5q41 0 84 13q68 23 116 72q15 15 39 61q44 86 44 233q0 102 -21 234q-22 131 -58 259q-29 109 -67 209l565 149 q42 -123 80 -277q45 -189 63 -362q11 -107 10 -205q0 -329 -118 -561q-84 -163 -222 -270q-183 -141 -440 -169q-5 -1 -17 -1q-4 -1 -12 -1t-12 -1q-29 -1 -49 -1h-18q-95 5 -185 27q-268 70 -426 302q-166 243 -166 614q0 350 147 814zM1130 -70l4 1h3zM1228 28q4 1 7 1z M1228 28q4 1 7 1q-3 0 -7 -1z" />
<glyph unicode="V" horiz-adv-x="2093" d="M0 1378l516 337l517 -624l340 650l665 -176l-995 -1645z" />
<glyph unicode="W" horiz-adv-x="2332" d="M0 1519l639 234l163 -584l381 469l274 -397l194 546l626 -170l-561 -1659l-571 816l-614 -854z" />
<glyph unicode="X" horiz-adv-x="1908" d="M0 1425l577 331l331 -392l296 393l643 -163l-523 -722l529 -625l-628 -214l-279 317l-319 -440l-601 283l488 648z" />
<glyph unicode="Y" horiz-adv-x="1958" d="M0 1310l466 442l504 -651l478 614l455 -405l-651 -663l-12 -687h-639v712z" />
<glyph unicode="Z" horiz-adv-x="1720" d="M0 100l711 940l-649 10l11 613l1592 -141l-631 -924l533 -37l-71 -631z" />
<glyph unicode="[" horiz-adv-x="951" />
<glyph unicode="\" horiz-adv-x="1592" />
<glyph unicode="]" horiz-adv-x="951" />
<glyph unicode="^" horiz-adv-x="855" />
<glyph unicode="_" horiz-adv-x="860" />
<glyph unicode="`" horiz-adv-x="739" />
<glyph unicode="a" horiz-adv-x="1909" d="M22 116l867 1703l986 -1626l-445 -288l-142 272l-575 14l-101 -271zM854 568l233 -10l-139 265z" />
<glyph unicode="b" horiz-adv-x="1596" d="M41 19l3 1642l546 -13q191 -10 352 -42q197 -37 315 -106q156 -89 156 -219q0 -124 -141 -285q-35 -40 -77 -71q263 -107 291 -375q5 -40 5 -78q0 -204 -133 -336q-145 -148 -395 -157q-43 -2 -92 -2q-78 0 -170 5l-131 7l-131 8l-1 1zM601 1287l3 -294h4q84 0 145 41 q57 41 64 98q1 7 1 14q0 50 -44 88q-59 49 -173 53zM604 622l3 -307q0 -1 2 -2t6 -2t10.5 -2t15.5 -2.5t20 -2.5q6 0 19 -1.5t20 -2.5q12 -1 23 -1h5q44 0 82 16l14 8q40 21 62 48q23 31 23 63q0 5 -1 10q-12 86 -120 134q-42 19 -96 29q-41 9 -88 15z" />
<glyph unicode="c" horiz-adv-x="1671" d="M22 963q20 177 106 327q85 145 224 253q249 190 557 190q55 0 112 -6q321 -35 550 -253l-229 -350q-95 74 -220 88q-27 3 -53 3q-134 0 -240 -78q-127 -91 -144 -241q-2 -20 -2 -39q0 -125 91 -227q106 -118 271 -136q26 -3 51 -3q119 0 219 63l196 -360 q-139 -107 -310 -157q-126 -38 -260 -38q-52 0 -104 6q-184 19 -346 105q-154 83 -268 215q-113 133 -166 295q-40 124 -40 252q0 45 5 91z" />
<glyph unicode="d" horiz-adv-x="1657" d="M27 72l11 1597q260 68 557 68q77 0 157 -5q562 -27 754 -471q34 -79 53 -162q15 -60 23 -141q6 -50 6 -92q0 -23 -2 -43q-5 -387 -248 -592q-198 -165 -535 -205q-111 -14 -234 -14q-143 0 -300 19q-143 16 -242 41zM558 588q68 -20 140 -20q36 0 73 5q97 14 158 66 q79 67 99 192q5 28 5 57q0 47 -13 96q-20 70 -65 112q-54 51 -152 62q-37 4 -72 4q-73 0 -138 -17z" />
<glyph unicode="e" horiz-adv-x="1282" d="M28 -36l4 1743l1192 35l18 -487l-665 13l8 -197l344 -1l19 -443l-355 27l5 -210l589 2l14 -468z" />
<glyph unicode="f" horiz-adv-x="1258" d="M29 13l7 1715l1203 -26l-36 -525l-550 35l-1 -213l374 -16l-27 -420l-352 29l-5 -546z" />
<glyph unicode="g" horiz-adv-x="1779" d="M28 682q-11 69 -11 136q0 114 31 225q48 173 163 318q242 306 646 368q85 13 168 13q115 0 227 -25q190 -44 344 -149l-193 -388q-102 53 -216 53q-38 0 -78 -6q-178 -27 -286 -156q-87 -105 -87 -227q0 -28 5 -57q26 -155 169 -245q110 -70 243 -70q38 0 78 6l1 1 l26 199l-268 3l35 379l677 -4l29 -828q-235 -242 -582 -295q-83 -13 -165 -13q-114 0 -226 25q-185 40 -341 145q-153 103 -255 253q-104 157 -134 339z" />
<glyph unicode="h" horiz-adv-x="1612" d="M31 1657l608 11l-7 -592l340 -37l35 676l549 -21l-30 -1661l-608 15l30 559l-321 27l-9 -636l-579 19z" />
<glyph unicode="i" horiz-adv-x="713" d="M25 1686l611 -12l-43 -1665l-550 2z" />
<glyph unicode="j" horiz-adv-x="1046" d="M-29 378q293 56 399 246q48 87 48 164v14l9 835l590 19l-36 -1043q-29 -249 -180 -417q-122 -136 -315 -212q-215 -86 -424 -86h-10z" />
<glyph unicode="k" horiz-adv-x="1676" d="M0 1668l584 64l8 -543l592 545l409 -371l-595 -497l623 -529l-516 -437l-503 575l5 -427l-560 28z" />
<glyph unicode="l" horiz-adv-x="1265" d="M0 1710l647 17l-59 -1172l610 34l12 -532l-1159 -27z" />
<glyph unicode="m" horiz-adv-x="2353" d="M13 219l578 1520l573 -686l597 698l479 -1558l-605 -205l-154 603l-336 -436l-336 377l-212 -556z" />
<glyph unicode="n" horiz-adv-x="1798" d="M59 1532l990 -572l-48 692l663 36l56 -1715l-1035 477l19 -494l-634 -2z" />
<glyph unicode="o" horiz-adv-x="1875" d="M28 897q28 177 128 333q93 149 241 262q275 206 603 206q42 0 85 -3q185 -15 345 -98q154 -79 260 -209q108 -132 151 -293q28 -101 28 -207q0 -67 -11 -137q-28 -176 -127 -333q-95 -150 -242 -262q-275 -206 -603 -206q-42 0 -85 3q-185 15 -345 98q-155 81 -259 209 q-107 131 -152 293q-28 102 -28 208q0 67 11 136zM588 846q-5 -29 -5 -57q0 -108 71 -196q91 -108 241 -122q17 -1 34 -1q131 0 240 82q123 91 147 236q5 29 5 57q0 109 -73 196q-89 110 -240 122q-17 1 -34 1q-130 0 -240 -82q-122 -92 -146 -236z" />
<glyph unicode="p" horiz-adv-x="1453" d="M16 -30l64 1697q151 18 301 18q190 0 377 -29q295 -43 463 -162q206 -145 206 -394v-7q-7 -461 -360 -630q-128 -62 -274 -72q-31 -2 -59 -2q-80 0 -131 19l-11 -430zM619 829q20 -3 41 -3q42 0 87 13q131 42 141 195v17q0 75 -33 130q-31 49 -89 80q-67 37 -132 41z" />
<glyph unicode="q" horiz-adv-x="1886" d="M28 912q30 173 127 325q96 146 242 255q276 202 607 202q40 0 82 -3q186 -17 345 -96q154 -77 260 -204q107 -128 152 -286q27 -99 27 -202q0 -67 -11 -135q-50 -300 -291 -517l96 -157l-442 -314l-115 232q-115 -26 -228 -26q-39 0 -77 3q-184 13 -345 94 q-154 78 -261 206q-108 129 -151 286q-28 99 -28 203q0 66 11 134zM571 875q-5 -28 -5 -54q0 -102 67 -187q84 -104 228 -124l-85 172l428 163l68 -112q20 42 27 85q5 29 5 56q0 106 -71 191q-92 107 -241 120q-15 1 -30 1q-134 0 -245 -80q-122 -92 -146 -231z" />
<glyph unicode="r" horiz-adv-x="1528" d="M22 1638q256 74 520 74q61 0 123 -4q286 -19 460 -141q218 -152 248 -459q6 -35 6 -73q0 -56 -13 -118q-20 -92 -68 -163q-60 -88 -161 -141l362 -368l-451 -372l-475 665l25 -555l-561 -10zM530 1317l23 -403q8 -1 17 -1q51 0 104 21q118 47 118 176q0 75 -41 124 q-35 39 -90 60q-59 23 -121 23h-10z" />
<glyph unicode="s" horiz-adv-x="1373" d="M-4 1069q-15 63 -15 124q0 117 56 227q83 159 254 242q186 90 402 90q40 0 82 -3q127 -9 267 -57l-132 -383q-91 31 -154 31q-80 0 -114 -50q-22 -31 -22 -65q0 -92 161 -206q71 -52 202 -124l25 -14l22 -12q9 -5 23.5 -12.5t19.5 -10.5q43 -26 63 -39q143 -101 183 -256 q14 -56 14 -112q0 -96 -42 -192q-71 -158 -188 -244q-133 -97 -342 -117q-24 -2 -51 -2q-98 0 -225 29q-130 29 -281 87l215 380q100 -64 175 -64q9 0 19 1q71 7 71 71q0 14 -3 30q-12 60 -64 109q-43 42 -147 96l-46 23l-46 24q-62 32 -94 51q-236 138 -288 348z" />
<glyph unicode="t" horiz-adv-x="1479" d="M-32 1674l1423 71l18 -474l-485 -30l34 -1232l-573 -22l-6 1221l-392 -24z" />
<glyph unicode="u" horiz-adv-x="1698" d="M11 1102q15 169 56 363q34 152 74 279l568 -138q-33 -92 -63 -210q-33 -130 -52 -260q-18 -120 -18 -216q0 -160 50 -250q25 -45 41 -61q49 -49 117 -69q41 -11 78 -12q28 0 55 7q39 9 72 33q42 32 69 84q44 86 44 220q0 84 -17 187q-19 126 -74 288q-17 53 -50 141 l-26 68l-26 70l599 55q164 -482 163 -843q0 -350 -153 -585q-153 -234 -419 -311q-88 -25 -185 -31q-17 0 -33.5 -0.5t-33.5 0.5q-8 1 -24 1q-12 0 -17 1q-259 24 -443 160q-139 103 -228 265q-131 244 -131 596q0 81 7 168zM1130 -70l4 1h3zM1228 28q4 1 7 1zM1228 28 q4 1 7 1q-3 0 -7 -1z" />
<glyph unicode="v" horiz-adv-x="2093" d="M-4 1545l656 207l401 -631l466 657l550 -291l-1001 -1538z" />
<glyph unicode="w" horiz-adv-x="2332" d="M0 1553l626 170l194 -546l284 357l371 -429l163 584l639 -234l-531 -1599l-604 814l-581 -776z" />
<glyph unicode="x" horiz-adv-x="1908" d="M-1 1550l636 186l311 -382l316 404l589 -309l-493 -603l512 -630l-590 -304l-335 428l-267 -327l-636 190l506 644z" />
<glyph unicode="y" horiz-adv-x="1958" d="M-2 1270l442 465l537 -623l445 638l476 -381l-615 -696l24 -687l-639 -33l-37 711z" />
<glyph unicode="z" horiz-adv-x="1720" d="M-10 1582l1598 50l-505 -1013l504 17l-7 -635l-1506 19l593 987l-627 -36z" />
<glyph unicode="{" horiz-adv-x="878" />
<glyph unicode="|" horiz-adv-x="619" />
<glyph unicode="}" horiz-adv-x="878" />
<glyph unicode="~" horiz-adv-x="1182" />
<glyph unicode="&#xa1;" horiz-adv-x="722" />
<glyph unicode="&#xa2;" horiz-adv-x="1136" />
<glyph unicode="&#xa3;" horiz-adv-x="1307" />
<glyph unicode="&#xa4;" />
<glyph unicode="&#xa5;" />
<glyph unicode="&#xa6;" />
<glyph unicode="&#xa7;" />
<glyph unicode="&#xa8;" horiz-adv-x="1065" d="M0 2041q0 76 58 130q59 53 140 53t140 -53q58 -54 58 -130q0 -77 -58 -129q-58 -54 -140 -54t-140 54q-58 52 -58 129zM614 2041q0 76 58 130q59 53 140 53t140 -53q58 -54 58 -130q0 -77 -58 -129q-58 -54 -140 -54t-140 54q-58 52 -58 129z" />
<glyph unicode="&#xa9;" />
<glyph unicode="&#xaa;" />
<glyph unicode="&#xab;" />
<glyph unicode="&#xac;" />
<glyph unicode="&#xad;" horiz-adv-x="759" />
<glyph unicode="&#xae;" />
<glyph unicode="&#xaf;" />
<glyph unicode="&#xb0;" />
<glyph unicode="&#xb1;" />
<glyph unicode="&#xb2;" />
<glyph unicode="&#xb3;" />
<glyph unicode="&#xb4;" horiz-adv-x="908" />
<glyph unicode="&#xb5;" />
<glyph unicode="&#xb6;" />
<glyph unicode="&#xb7;" />
<glyph unicode="&#xb8;" horiz-adv-x="830" />
<glyph unicode="&#xb9;" />
<glyph unicode="&#xba;" />
<glyph unicode="&#xbb;" />
<glyph unicode="&#xbc;" />
<glyph unicode="&#xbd;" />
<glyph unicode="&#xbe;" />
<glyph unicode="&#xbf;" horiz-adv-x="1350" />
<glyph unicode="&#xc0;" horiz-adv-x="1909" />
<glyph unicode="&#xc1;" horiz-adv-x="1909" />
<glyph unicode="&#xc2;" horiz-adv-x="1909" />
<glyph unicode="&#xc3;" horiz-adv-x="1909" />
<glyph unicode="&#xc4;" horiz-adv-x="1909" />
<glyph unicode="&#xc5;" horiz-adv-x="1909" />
<glyph unicode="&#xc6;" horiz-adv-x="2605" d="M0 199l1294 1486l1149 96l23 -478l-589 -19l3 -209l354 39l-5 -444l-343 -13l-1 -197l665 37l-3 -468l-1192 -26l-7 198l-546 -7l-258 -314zM1125 567q96 0 210 -8l-9 240z" />
<glyph unicode="&#xc7;" horiz-adv-x="1699" />
<glyph unicode="&#xc8;" horiz-adv-x="1282" />
<glyph unicode="&#xc9;" horiz-adv-x="1282" />
<glyph unicode="&#xca;" horiz-adv-x="1282" />
<glyph unicode="&#xcb;" horiz-adv-x="1282" />
<glyph unicode="&#xcc;" horiz-adv-x="713" />
<glyph unicode="&#xcd;" horiz-adv-x="713" />
<glyph unicode="&#xce;" horiz-adv-x="713" />
<glyph unicode="&#xcf;" horiz-adv-x="713" />
<glyph unicode="&#xd0;" horiz-adv-x="1635" />
<glyph unicode="&#xd1;" horiz-adv-x="1798" />
<glyph unicode="&#xd2;" horiz-adv-x="1835" />
<glyph unicode="&#xd3;" horiz-adv-x="1835" />
<glyph unicode="&#xd4;" horiz-adv-x="1835" />
<glyph unicode="&#xd5;" horiz-adv-x="1835" />
<glyph unicode="&#xd6;" horiz-adv-x="1835" />
<glyph unicode="&#xd7;" />
<glyph unicode="&#xd8;" horiz-adv-x="1892" d="M34 874q28 170 127 323q97 149 239 253q306 226 684 197q97 -7 190 -35l67 117l136 -66l-53 -109q233 -117 350 -338q121 -223 77 -484q-28 -171 -125 -324q-93 -143 -241 -253q-308 -227 -683 -197q-81 8 -144 23l-104 -201l-127 72l89 174q-258 109 -391 339 q-136 233 -91 509zM574 838q-18 -104 31 -195q47 -87 142 -134l300 627q-31 8 -57 9q-149 12 -271 -78q-123 -91 -145 -229zM897 473q143 -4 260 85q116 89 139 223q14 85 -16 161q-28 74 -93 126z" />
<glyph unicode="&#xd9;" horiz-adv-x="1698" />
<glyph unicode="&#xda;" horiz-adv-x="1698" />
<glyph unicode="&#xdb;" horiz-adv-x="1698" />
<glyph unicode="&#xdc;" horiz-adv-x="1698" />
<glyph unicode="&#xdd;" horiz-adv-x="1958" />
<glyph unicode="&#xde;" horiz-adv-x="1476" />
<glyph unicode="&#xdf;" horiz-adv-x="1607" d="M0 -87q3 155 9 463q1 74 3 170q1 60 3 149q3 145 3 146q3 451 229 683q79 82 184 132q39 20 81 33q28 10 62 18q136 34 289 41q181 10 289 -26q74 -25 146 -68q83 -50 124 -101q159 -194 74 -394q-30 -73 -85 -126q-46 -47 -80 -52q98 -81 161 -188q89 -152 94 -312 q5 -159 -78 -302q-80 -139 -286 -221q-189 -76 -402 -78l-34 456q106 -4 196 24q96 31 107 84q35 170 -141 212q-56 14 -126 12q-16 0 -25 -1q-12 0 -19 -1l-20 -1l-21 333q0 -1 15 1.5t47 9.5q30 8 45 11q8 2 16 4.5t9 2.5q132 41 103 157q-11 44 -50 71q-42 29 -93 19 q-168 -32 -211 -104q-33 -56 -29 -237l30 -1009zM851 1098l8 1l1 -1h-9z" />
<glyph unicode="&#xe0;" horiz-adv-x="1909" />
<glyph unicode="&#xe1;" horiz-adv-x="1909" />
<glyph unicode="&#xe2;" horiz-adv-x="1909" />
<glyph unicode="&#xe3;" horiz-adv-x="1909" />
<glyph unicode="&#xe4;" horiz-adv-x="1909" />
<glyph unicode="&#xe5;" horiz-adv-x="1909" />
<glyph unicode="&#xe6;" horiz-adv-x="2605" d="M0 199l1294 1486l1149 96l23 -478l-589 -19l3 -209l354 39l-5 -444l-343 -13l-1 -197l665 37l-3 -468l-1192 -26l-7 198l-546 -7l-258 -314zM1125 567q96 0 210 -8l-9 240z" />
<glyph unicode="&#xe7;" horiz-adv-x="1699" d="M1 974q21 175 112 326q87 145 227 249q296 221 671 174q320 -39 547 -261l-234 -347q-95 77 -219 92q-166 20 -295 -71q-129 -92 -147 -239q-18 -148 86 -267q104 -120 269 -139q148 -18 269 55l192 -363q-210 -159 -481 -182l-20 -54q64 -25 109 -69q51 -49 53 -130 q1 -74 -43 -166q-39 -77 -99 -140q-67 -69 -163 -100q-105 -33 -240 -16h-1h-1q-2 1 -7 1q-3 1 -10 2t-11 2q-14 3 -37 7.5t-29 5.5q-96 21 -104 36l-5 10l5 11q34 62 103 187l9 16l18 -5q165 -48 241 1q26 17 39 41q2 3 7 16q1 1 1 5v1l1 1v1v1q13 49 -10 78q-24 28 -82 40 q-23 5 -46 6q-20 2 -35 0l-35 -2l12 33l70 205q-331 81 -528 350q-200 272 -159 598z" />
<glyph unicode="&#xe8;" horiz-adv-x="1282" />
<glyph unicode="&#xe9;" horiz-adv-x="1282" />
<glyph unicode="&#xea;" horiz-adv-x="1282" />
<glyph unicode="&#xeb;" horiz-adv-x="1282" />
<glyph unicode="&#xec;" horiz-adv-x="713" />
<glyph unicode="&#xed;" horiz-adv-x="713" />
<glyph unicode="&#xee;" horiz-adv-x="713" />
<glyph unicode="&#xef;" horiz-adv-x="713" />
<glyph unicode="&#xf0;" horiz-adv-x="1635" />
<glyph unicode="&#xf1;" horiz-adv-x="1798" />
<glyph unicode="&#xf2;" horiz-adv-x="1835" />
<glyph unicode="&#xf3;" horiz-adv-x="1835" />
<glyph unicode="&#xf4;" horiz-adv-x="1835" />
<glyph unicode="&#xf5;" horiz-adv-x="1835" />
<glyph unicode="&#xf6;" horiz-adv-x="1835" />
<glyph unicode="&#xf7;" />
<glyph unicode="&#xf8;" horiz-adv-x="1892" d="M34 874q28 170 127 323q97 149 239 253q306 226 684 197q97 -7 190 -35l67 117l136 -66l-53 -109q233 -117 350 -338q121 -223 77 -484q-28 -171 -125 -324q-93 -143 -241 -253q-308 -227 -683 -197q-81 8 -144 23l-104 -201l-127 72l89 174q-258 109 -391 339 q-136 233 -91 509zM574 838q-18 -104 31 -195q47 -87 142 -134l300 627q-31 8 -57 9q-149 12 -271 -78q-123 -91 -145 -229zM897 473q143 -4 260 85q116 89 139 223q14 85 -16 161q-28 74 -93 126z" />
<glyph unicode="&#xf9;" horiz-adv-x="1698" />
<glyph unicode="&#xfa;" horiz-adv-x="1698" />
<glyph unicode="&#xfb;" horiz-adv-x="1698" />
<glyph unicode="&#xfc;" horiz-adv-x="1698" />
<glyph unicode="&#xfd;" horiz-adv-x="1958" />
<glyph unicode="&#xfe;" horiz-adv-x="1476" />
<glyph unicode="&#xff;" horiz-adv-x="1958" />
<glyph unicode="&#x152;" horiz-adv-x="2547" />
<glyph unicode="&#x153;" horiz-adv-x="2547" />
<glyph unicode="&#x178;" horiz-adv-x="1958" />
<glyph unicode="&#x2c6;" horiz-adv-x="964" d="M0 2221l379 262l101 70l93 -80l336 -288l-208 -242l-242 207l-278 -192z" />
<glyph unicode="&#x2dc;" horiz-adv-x="1182" />
<glyph unicode="&#x2000;" horiz-adv-x="1276" />
<glyph unicode="&#x2001;" horiz-adv-x="2553" />
<glyph unicode="&#x2002;" horiz-adv-x="1276" />
<glyph unicode="&#x2003;" horiz-adv-x="2553" />
<glyph unicode="&#x2004;" horiz-adv-x="851" />
<glyph unicode="&#x2005;" horiz-adv-x="638" />
<glyph unicode="&#x2006;" horiz-adv-x="425" />
<glyph unicode="&#x2007;" horiz-adv-x="425" />
<glyph unicode="&#x2008;" horiz-adv-x="319" />
<glyph unicode="&#x2009;" horiz-adv-x="510" />
<glyph unicode="&#x200a;" horiz-adv-x="141" />
<glyph unicode="&#x2010;" horiz-adv-x="759" />
<glyph unicode="&#x2011;" horiz-adv-x="759" />
<glyph unicode="&#x2012;" horiz-adv-x="759" />
<glyph unicode="&#x2013;" />
<glyph unicode="&#x2014;" />
<glyph unicode="&#x2018;" horiz-adv-x="533" />
<glyph unicode="&#x2019;" horiz-adv-x="527" />
<glyph unicode="&#x201a;" horiz-adv-x="527" />
<glyph unicode="&#x201c;" horiz-adv-x="1083" />
<glyph unicode="&#x201d;" horiz-adv-x="1083" />
<glyph unicode="&#x201e;" horiz-adv-x="1111" />
<glyph unicode="&#x2022;" />
<glyph unicode="&#x2026;" horiz-adv-x="2048" />
<glyph unicode="&#x202f;" horiz-adv-x="510" />
<glyph unicode="&#x2039;" />
<glyph unicode="&#x203a;" horiz-adv-x="2353" />
<glyph unicode="&#x205f;" horiz-adv-x="638" />
<glyph unicode="&#x20ac;" horiz-adv-x="1330" />
<glyph unicode="&#x2122;" />
<glyph unicode="&#x25fc;" horiz-adv-x="1760" d="M0 0v1760h1760v-1760h-1760z" />
</font>
</defs>
</svg>
